<svg version="1.1" id="Layer_1" xmlns="http://www.w3.org/2000/svg" xmlns:xlink="http://www.w3.org/1999/xlink" x="0px" y="0px"
	 width="100%" viewBox="0 0 451 116" enable-background="new 0 0 451 116" xml:space="preserve">
<path fill="#000000" opacity="1.000000" stroke="none" 
	d="
M330.000000,117.000000 
	C220.000015,117.000000 110.500023,117.000000 1.000029,117.000000 
	C1.000020,78.333351 1.000020,39.666702 1.000010,1.000040 
	C151.333298,1.000026 301.666595,1.000026 451.999908,1.000013 
	C451.999939,39.666626 451.999939,78.333252 451.999969,116.999939 
	C411.500000,117.000000 371.000000,117.000000 330.000000,117.000000 
M346.149628,81.473534 
	C346.442230,81.558640 346.734802,81.643745 347.471680,81.902359 
	C347.471680,81.902359 347.941284,81.985886 348.416199,82.688278 
	C352.305298,82.128342 356.194427,81.568405 360.618591,80.810913 
	C361.077698,80.218719 361.536804,79.626526 362.607971,78.743317 
	C363.112030,77.510689 363.616058,76.278061 364.802368,74.556381 
	C365.127075,68.571342 365.956970,62.395988 358.312775,58.813011 
	C353.139191,56.033478 348.966553,56.538284 345.060333,60.416229 
	C339.658875,65.778587 339.316010,71.652893 344.154236,79.480347 
	C344.439209,79.650139 344.724152,79.819931 345.000000,80.000000 
	C345.000000,80.000000 345.009521,79.990288 345.125946,80.502129 
	C345.417358,80.673691 345.708740,80.845253 346.004761,80.994644 
	C346.004761,80.994644 345.983459,81.002350 346.149628,81.473534 
M391.514313,64.886841 
	C391.606628,64.558662 391.698975,64.230484 391.941071,63.516804 
	C391.941071,63.516804 392.011383,63.109272 392.708038,62.785469 
	C394.973999,62.262234 397.273743,61.309902 399.484741,61.484119 
	C400.126129,61.534657 400.880676,64.798370 400.947601,66.612564 
	C401.142914,71.904961 401.016998,77.209206 401.016998,82.666321 
	C402.810852,82.666321 404.179321,82.666321 405.963470,82.666321 
	C405.963470,76.727180 405.991821,71.092918 405.954010,65.459091 
	C405.926544,61.364124 404.513245,58.191589 400.264496,56.752510 
	C396.238983,55.389030 393.314423,56.841927 390.301392,60.172634 
	C388.882050,59.455521 387.303406,58.942448 386.073853,57.982307 
	C382.650085,55.308826 379.708160,55.851768 376.231140,58.742821 
	C374.744995,58.035988 373.258881,57.329151 371.271545,56.383942 
	C371.271545,65.763191 371.271545,74.154816 371.271545,82.939125 
	C372.924591,82.826859 374.282928,82.734619 375.966064,82.620308 
	C375.966064,78.085335 376.177185,73.945686 375.901794,69.838669 
	C375.665710,66.318291 376.418030,63.384884 379.895691,61.000515 
	C381.889526,61.674503 383.883392,62.348492 385.978790,63.952965 
	C385.978790,70.195496 385.978790,76.438034 385.978790,83.072029 
	C387.972961,82.910339 389.338165,82.799644 390.811981,82.680145 
	C390.811981,76.838348 390.811981,71.399757 390.943634,65.539803 
	C390.943634,65.539803 391.005676,65.102730 391.514313,64.886841 
M85.652542,74.030914 
	C85.652542,74.030914 86.066475,73.873932 86.787880,73.953560 
	C90.941261,80.200348 95.094635,86.447128 99.495033,93.065430 
	C114.240723,68.874367 128.620453,45.283669 143.000183,21.692966 
	C142.746292,21.352482 142.492386,21.011997 142.238480,20.671515 
	C133.572754,23.865597 124.914970,27.081692 116.226143,30.211624 
	C115.537132,30.459822 114.632950,30.110682 113.960136,29.314096 
	C115.282585,26.784897 116.605042,24.255697 118.469315,20.690275 
	C106.928978,24.425100 96.471497,27.809483 85.258690,31.047573 
	C75.514961,27.589499 65.771233,24.131426 55.342129,20.430111 
	C57.173374,24.247919 58.545887,27.109360 59.250465,30.009306 
	C58.776348,30.146461 58.220219,30.518562 57.840267,30.385941 
	C50.819939,27.935446 43.831783,25.392607 36.807529,22.953667 
	C35.398296,22.464355 33.868614,22.321951 32.394466,22.019598 
	C32.118423,22.392740 31.842382,22.765882 31.566339,23.139025 
	C45.733562,46.334991 59.900780,69.530960 74.677017,93.724075 
	C78.479706,86.615616 81.844780,80.325211 85.652542,74.030914 
M143.669327,65.870316 
	C143.292236,67.013863 142.915161,68.157410 142.143631,70.497147 
	C140.372620,62.654335 138.850281,55.912743 137.344467,49.244324 
	C134.494492,49.010815 131.927979,48.800529 129.447357,48.597282 
	C132.132599,60.088615 134.780518,71.420311 137.438828,82.796417 
	C140.295654,82.796417 142.915924,82.796417 145.684433,82.796417 
	C147.285065,76.555550 148.849289,70.456650 150.775024,62.948181 
	C152.919968,70.422874 154.714935,76.677979 156.479614,82.827591 
	C159.403473,82.827591 161.873398,82.827591 164.600555,82.827591 
	C167.139145,71.703262 169.655182,60.677860 172.226486,49.410213 
	C167.440399,48.591557 164.076004,48.135017 163.677887,54.400578 
	C163.365387,59.318459 161.454102,64.134750 159.909821,70.385658 
	C157.998581,63.083405 156.652374,57.227489 154.818024,51.528706 
	C154.448166,50.379715 152.261673,49.255642 150.850616,49.172356 
	C149.643188,49.101078 147.547623,50.295578 147.228363,51.349377 
	C145.862732,55.857079 145.009399,60.519981 143.669327,65.870316 
M208.981537,55.868797 
	C208.981537,53.080376 208.981537,50.291954 208.981537,47.321217 
	C206.450806,47.321217 204.408325,47.321217 202.386871,47.321217 
	C202.386871,59.356548 202.386871,71.075279 202.386871,82.499496 
	C207.668213,82.667816 212.571274,82.839577 217.475449,82.967430 
	C218.467361,82.993286 219.567276,83.106079 220.440994,82.748177 
	C225.972137,80.482422 228.247574,70.437248 225.565277,62.983620 
	C223.584656,57.479851 216.665176,54.174194 210.770279,57.674667 
	C210.474457,57.850323 209.594971,57.043087 208.981537,55.868797 
M187.630417,71.955643 
	C190.703781,71.955643 193.777161,71.955643 196.751587,71.955643 
	C198.178970,59.127628 193.219589,57.380169 186.647400,56.177391 
	C180.691010,55.087311 174.328094,61.023487 173.016739,68.171974 
	C171.998413,73.723122 176.709412,81.511002 181.899063,82.855598 
	C189.415771,84.803131 194.520523,82.634766 196.711929,76.607094 
	C194.429169,74.839439 192.639389,73.246735 189.416809,75.979614 
	C186.070892,78.817070 182.731842,76.947769 181.210312,71.971512 
	C183.118988,71.971512 184.910065,71.971512 187.630417,71.955643 
M283.578644,64.776764 
	C286.182556,62.233669 288.869293,62.229851 291.889374,64.280281 
	C291.365570,64.932236 291.130554,65.531609 290.738892,65.662621 
	C288.122559,66.537834 285.435822,67.210510 282.841919,68.143364 
	C278.181641,69.819359 276.433594,73.316353 277.941681,77.636070 
	C280.218353,84.157196 286.561188,85.290512 291.443359,81.105721 
	C295.311676,81.948456 298.389038,82.618881 301.844513,83.371681 
	C301.844513,80.852280 302.353699,78.710007 301.763672,78.345093 
	C297.188171,75.515320 299.133362,71.115158 299.107239,67.433723 
	C299.075317,62.929943 298.234985,59.139847 293.930603,57.113052 
	C289.144745,54.859558 284.654755,56.318951 280.606995,59.135906 
	C279.695435,59.770279 278.709656,61.949322 279.074921,62.442989 
	C279.997986,63.690620 281.670319,64.383942 283.578644,64.776764 
M240.178680,56.513695 
	C232.354675,58.875057 228.943649,63.952938 230.089172,72.106873 
	C230.752090,76.825668 232.673386,81.595444 237.602325,82.611412 
	C242.573822,83.636139 248.064255,84.224052 252.252686,79.307610 
	C256.379883,74.463020 255.673050,69.065041 254.210556,63.926365 
	C252.397507,57.555801 246.728134,56.419056 240.178680,56.513695 
M267.945587,58.978153 
	C265.536438,58.132580 263.127289,57.287006 260.429260,56.340046 
	C260.429260,66.066338 260.429260,74.436150 260.429260,82.766197 
	C267.862030,83.227348 267.856995,83.227325 267.883881,76.474724 
	C267.888489,75.311989 267.988922,74.149544 267.989990,72.986908 
	C267.997559,64.672302 267.993011,64.672295 275.593597,63.438251 
	C276.404694,56.701210 274.793732,55.571781 267.945587,58.978153 
M328.174896,79.916618 
	C322.445862,80.432655 321.035217,75.874603 320.769867,72.091797 
	C320.539612,68.808434 321.794434,64.544052 323.985077,62.203255 
	C326.391876,59.631451 330.335419,60.181755 333.136444,63.383945 
	C333.636841,63.956028 335.653290,64.172226 335.858337,63.848625 
	C336.448486,62.917137 336.968262,61.408482 336.586517,60.530643 
	C336.124725,59.468643 334.793701,58.684582 333.695435,58.015713 
	C326.797821,53.814903 318.026093,56.997799 315.935516,65.913849 
	C314.540619,71.862885 316.777893,79.268265 321.412384,81.687370 
	C327.498199,84.864021 332.133484,83.440544 337.525055,76.093613 
	C335.809265,75.912834 334.332916,75.286705 333.472717,75.766113 
	C331.763336,76.718781 330.393280,78.280289 328.174896,79.916618 
z"/>
<path fill="#14A9A8" opacity="1.000000" stroke="none" 
	d="
M113.828758,30.039141 
	C114.632950,30.110682 115.537132,30.459822 116.226143,30.211624 
	C124.914970,27.081692 133.572754,23.865597 142.238480,20.671515 
	C142.492386,21.011997 142.746292,21.352482 143.000183,21.692966 
	C128.620453,45.283669 114.240723,68.874367 99.495033,93.065430 
	C95.094635,86.447128 90.941261,80.200348 86.402824,73.542130 
	C83.428749,68.739876 80.839729,64.349045 78.186310,59.593353 
	C73.084984,51.161808 68.048050,43.095127 62.944637,34.698082 
	C61.891571,32.902077 60.904984,31.436438 59.918400,29.970800 
	C58.545887,27.109360 57.173374,24.247919 55.342129,20.430111 
	C65.771233,24.131426 75.514961,27.589499 85.862610,31.318069 
	C86.977898,33.042984 87.489265,34.497402 87.635239,35.950279 
	C85.817245,36.868172 84.364655,37.787605 82.754807,38.806576 
	C84.260696,41.341881 85.596184,43.590294 87.214241,46.061203 
	C90.285034,50.867096 93.073250,55.450485 95.992889,60.355331 
	C97.148689,62.392921 98.173073,64.109055 99.329590,66.046562 
	C105.046341,56.523956 110.450310,47.522377 115.842308,38.540726 
	C113.656624,37.236324 111.852135,36.159420 109.963211,34.805996 
	C111.195435,33.032700 112.512093,31.535919 113.828758,30.039141 
z"/>
<path fill="#118D8B" opacity="1.000000" stroke="none" 
	d="
M59.584435,29.990053 
	C60.904984,31.436438 61.891571,32.902077 62.787231,34.991234 
	C61.226616,36.578972 59.756927,37.543190 58.044449,38.666695 
	C63.414196,47.586792 68.637672,56.263905 74.105141,65.346344 
	C75.456665,63.899715 76.340263,62.953934 77.450851,62.242966 
	C80.188507,66.330116 82.699181,70.182465 85.209854,74.034805 
	C81.844780,80.325211 78.479706,86.615616 74.677017,93.724075 
	C59.900780,69.530960 45.733562,46.334991 31.566339,23.139025 
	C31.842382,22.765882 32.118423,22.392740 32.394466,22.019598 
	C33.868614,22.321951 35.398296,22.464355 36.807529,22.953667 
	C43.831783,25.392607 50.819939,27.935446 57.840267,30.385941 
	C58.220219,30.518562 58.776348,30.146461 59.584435,29.990053 
z"/>
<path fill="#F15A5B" opacity="1.000000" stroke="none" 
	d="
M143.819290,65.498306 
	C145.009399,60.519981 145.862732,55.857079 147.228363,51.349377 
	C147.547623,50.295578 149.643188,49.101078 150.850616,49.172356 
	C152.261673,49.255642 154.448166,50.379715 154.818024,51.528706 
	C156.652374,57.227489 157.998581,63.083405 159.909821,70.385658 
	C161.454102,64.134750 163.365387,59.318459 163.677887,54.400578 
	C164.076004,48.135017 167.440399,48.591557 172.226486,49.410213 
	C169.655182,60.677860 167.139145,71.703262 164.600555,82.827591 
	C161.873398,82.827591 159.403473,82.827591 156.479614,82.827591 
	C154.714935,76.677979 152.919968,70.422874 150.775024,62.948181 
	C148.849289,70.456650 147.285065,76.555550 145.684433,82.796417 
	C142.915924,82.796417 140.295654,82.796417 137.438828,82.796417 
	C134.780518,71.420311 132.132599,60.088615 129.447357,48.597282 
	C131.927979,48.800529 134.494492,49.010815 137.344467,49.244324 
	C138.850281,55.912743 140.372620,62.654335 142.143631,70.497147 
	C142.915161,68.157410 143.292236,67.013863 143.819290,65.498306 
z"/>
<path fill="#F15A5A" opacity="1.000000" stroke="none" 
	d="
M208.984406,56.281151 
	C209.594971,57.043087 210.474457,57.850323 210.770279,57.674667 
	C216.665176,54.174194 223.584656,57.479851 225.565277,62.983620 
	C228.247574,70.437248 225.972137,80.482422 220.440994,82.748177 
	C219.567276,83.106079 218.467361,82.993286 217.475449,82.967430 
	C212.571274,82.839577 207.668213,82.667816 202.386871,82.499496 
	C202.386871,71.075279 202.386871,59.356548 202.386871,47.321217 
	C204.408325,47.321217 206.450806,47.321217 208.981537,47.321217 
	C208.981537,50.291954 208.981537,53.080376 208.984406,56.281151 
M218.995026,67.864563 
	C217.240692,62.818623 214.446060,61.320480 211.519653,64.037262 
	C208.536072,66.807129 207.865005,70.370979 210.045288,73.785858 
	C210.993591,75.271172 213.368301,76.953644 214.872253,76.765411 
	C219.120636,76.233688 219.169418,72.615135 219.001541,69.219902 
	C218.993378,69.054901 218.998810,68.889229 218.995026,67.864563 
z"/>
<path fill="#118D8A" opacity="1.000000" stroke="none" 
	d="
M88.000633,35.951820 
	C87.489265,34.497402 86.977898,33.042984 86.240265,31.391214 
	C96.471497,27.809483 106.928978,24.425100 118.469315,20.690275 
	C116.605042,24.255697 115.282585,26.784897 113.894447,29.676619 
	C112.512093,31.535919 111.195435,33.032700 109.817627,35.120083 
	C105.508522,42.507912 101.260567,49.305130 96.731133,55.906975 
	C93.583801,52.141853 90.717949,48.572109 87.954491,44.661385 
	C88.928253,41.524895 92.193687,38.713291 88.000633,35.951820 
z"/>
<path fill="#F05A59" opacity="1.000000" stroke="none" 
	d="
M187.165771,71.963577 
	C184.910065,71.971512 183.118988,71.971512 181.210312,71.971512 
	C182.731842,76.947769 186.070892,78.817070 189.416809,75.979614 
	C192.639389,73.246735 194.429169,74.839439 196.711929,76.607094 
	C194.520523,82.634766 189.415771,84.803131 181.899063,82.855598 
	C176.709412,81.511002 171.998413,73.723122 173.016739,68.171974 
	C174.328094,61.023487 180.691010,55.087311 186.647400,56.177391 
	C193.219589,57.380169 198.178970,59.127628 196.751587,71.955643 
	C193.777161,71.955643 190.703781,71.955643 187.165771,71.963577 
M182.118988,64.441116 
	C181.904510,65.215828 181.690033,65.990540 181.488510,66.718460 
	C184.355667,66.718460 187.117462,66.718460 190.350449,66.718460 
	C188.918564,61.516769 185.799942,62.692455 182.118988,64.441116 
z"/>
<path fill="#EF5A5A" opacity="1.000000" stroke="none" 
	d="
M283.310547,65.038055 
	C281.670319,64.383942 279.997986,63.690620 279.074921,62.442989 
	C278.709656,61.949322 279.695435,59.770279 280.606995,59.135906 
	C284.654755,56.318951 289.144745,54.859558 293.930603,57.113052 
	C298.234985,59.139847 299.075317,62.929943 299.107239,67.433723 
	C299.133362,71.115158 297.188171,75.515320 301.763672,78.345093 
	C302.353699,78.710007 301.844513,80.852280 301.844513,83.371681 
	C298.389038,82.618881 295.311676,81.948456 291.443359,81.105721 
	C286.561188,85.290512 280.218353,84.157196 277.941681,77.636070 
	C276.433594,73.316353 278.181641,69.819359 282.841919,68.143364 
	C285.435822,67.210510 288.122559,66.537834 290.738892,65.662621 
	C291.130554,65.531609 291.365570,64.932236 291.889374,64.280281 
	C288.869293,62.229851 286.182556,62.233669 283.310547,65.038055 
M286.713654,72.066223 
	C286.000671,73.449165 285.287659,74.832108 284.417175,76.520561 
	C291.683655,77.335228 292.345764,76.745087 291.429626,71.628853 
	C290.118835,71.751205 288.832275,71.871300 286.713654,72.066223 
z"/>
<path fill="#F15A5A" opacity="1.000000" stroke="none" 
	d="
M240.546738,56.343567 
	C246.728134,56.419056 252.397507,57.555801 254.210556,63.926365 
	C255.673050,69.065041 256.379883,74.463020 252.252686,79.307610 
	C248.064255,84.224052 242.573822,83.636139 237.602325,82.611412 
	C232.673386,81.595444 230.752090,76.825668 230.089172,72.106873 
	C228.943649,63.952938 232.354675,58.875057 240.546738,56.343567 
M237.959015,69.557014 
	C238.040268,72.757088 237.215530,76.996422 242.078796,76.747292 
	C244.096313,76.643936 246.250443,73.999733 247.789597,72.070023 
	C248.507095,71.170464 248.203735,69.144104 247.845078,67.763016 
	C247.071198,64.783119 245.556458,62.468876 241.831070,62.992554 
	C238.387451,63.476631 237.750641,65.770149 237.959015,69.557014 
z"/>
<path fill="#EE5B5A" opacity="1.000000" stroke="none" 
	d="
M268.127808,58.655006 
	C274.793732,55.571781 276.404694,56.701210 275.593597,63.438251 
	C267.993011,64.672295 267.997559,64.672302 267.989990,72.986908 
	C267.988922,74.149544 267.888489,75.311989 267.883881,76.474724 
	C267.856995,83.227325 267.862030,83.227348 260.429260,82.766197 
	C260.429260,74.436150 260.429260,66.066338 260.429260,56.340046 
	C263.127289,57.287006 265.536438,58.132580 268.127808,58.655006 
z"/>
<path fill="#4F6CE7" opacity="1.000000" stroke="none" 
	d="
M328.528961,79.753418 
	C330.393280,78.280289 331.763336,76.718781 333.472717,75.766113 
	C334.332916,75.286705 335.809265,75.912834 337.525055,76.093613 
	C332.133484,83.440544 327.498199,84.864021 321.412384,81.687370 
	C316.777893,79.268265 314.540619,71.862885 315.935516,65.913849 
	C318.026093,56.997799 326.797821,53.814903 333.695435,58.015713 
	C334.793701,58.684582 336.124725,59.468643 336.586517,60.530643 
	C336.968262,61.408482 336.448486,62.917137 335.858337,63.848625 
	C335.653290,64.172226 333.636841,63.956028 333.136444,63.383945 
	C330.335419,60.181755 326.391876,59.631451 323.985077,62.203255 
	C321.794434,64.544052 320.539612,68.808434 320.769867,72.091797 
	C321.035217,75.874603 322.445862,80.432655 328.528961,79.753418 
z"/>
<path fill="#526EE5" opacity="1.000000" stroke="none" 
	d="
M390.894165,59.962280 
	C393.314423,56.841927 396.238983,55.389030 400.264496,56.752510 
	C404.513245,58.191589 405.926544,61.364124 405.954010,65.459091 
	C405.991821,71.092918 405.963470,76.727180 405.963470,82.666321 
	C404.179321,82.666321 402.810852,82.666321 401.016998,82.666321 
	C401.016998,77.209206 401.142914,71.904961 400.947601,66.612564 
	C400.880676,64.798370 400.126129,61.534657 399.484741,61.484119 
	C397.273743,61.309902 394.973999,62.262234 392.327240,62.605934 
	C391.595673,61.605030 391.244904,60.783657 390.894165,59.962280 
z"/>
<path fill="#536EE7" opacity="1.000000" stroke="none" 
	d="
M379.096649,61.032478 
	C376.418030,63.384884 375.665710,66.318291 375.901794,69.838669 
	C376.177185,73.945686 375.966064,78.085335 375.966064,82.620308 
	C374.282928,82.734619 372.924591,82.826859 371.271545,82.939125 
	C371.271545,74.154816 371.271545,65.763191 371.271545,56.383942 
	C373.258881,57.329151 374.744995,58.035988 376.713135,59.122894 
	C377.828949,60.012806 378.462799,60.522644 379.096649,61.032478 
z"/>
<path fill="#4C6AF0" opacity="1.000000" stroke="none" 
	d="
M347.941284,81.985886 
	C347.941284,81.985886 347.471680,81.902359 347.100037,81.660614 
	C346.509247,81.227814 346.260956,81.088974 345.983459,81.002350 
	C345.983459,81.002350 346.004761,80.994644 345.866516,80.807922 
	C345.523224,80.371574 345.283630,80.161270 345.009521,79.990288 
	C345.009521,79.990288 345.000000,80.000000 344.865173,79.797691 
	C344.517059,79.348557 344.265503,79.150253 343.975708,79.000465 
	C339.316010,71.652893 339.658875,65.778587 345.060333,60.416229 
	C348.966553,56.538284 353.139191,56.033478 358.653931,59.351543 
	C358.984680,60.626331 358.974243,61.362583 358.554657,62.038391 
	C353.998016,60.524189 349.638519,59.713062 346.436432,63.386917 
	C343.558350,66.689056 344.732697,74.431969 348.218018,78.299744 
	C348.983704,78.629402 349.517059,78.797989 350.029572,78.982018 
	C350.008759,78.997459 350.036987,78.953506 349.991089,79.284042 
	C349.277222,80.405022 348.609253,81.195450 347.941284,81.985886 
z"/>
<path fill="#4A6CF5" opacity="1.000000" stroke="none" 
	d="
M379.496155,61.016499 
	C378.462799,60.522644 377.828949,60.012806 377.073578,59.212357 
	C379.708160,55.851768 382.650085,55.308826 386.073853,57.982307 
	C387.303406,58.942448 388.882050,59.455521 390.597778,60.067459 
	C391.244904,60.783657 391.595673,61.605030 391.978912,62.767838 
	C392.011383,63.109272 391.941071,63.516804 391.690308,63.879333 
	C391.220184,64.491150 391.075562,64.778099 391.005676,65.102730 
	C391.005676,65.102730 390.943634,65.539803 390.706757,66.127686 
	C390.179291,71.360771 389.888702,76.005959 389.598114,80.651154 
	C389.361633,80.638237 389.125153,80.625328 388.888702,80.612411 
	C387.884857,74.749100 386.881042,68.885788 385.877228,63.022476 
	C383.883392,62.348492 381.889526,61.674503 379.496155,61.016499 
z"/>
<path fill="#4F6BF0" opacity="1.000000" stroke="none" 
	d="
M358.963806,62.098839 
	C358.974243,61.362583 358.984680,60.626331 358.997742,59.521919 
	C365.956970,62.395988 365.127075,68.571342 364.144897,74.939392 
	C362.990204,76.559708 362.493042,77.797012 361.995880,79.034325 
	C361.536804,79.626526 361.077698,80.218719 359.999207,80.851410 
	C358.573334,79.889305 357.766907,78.886711 357.110931,77.565292 
	C358.180786,75.607353 359.801971,73.997688 359.872253,72.322952 
	C360.014465,68.933586 359.315765,65.508942 358.963806,62.098839 
z"/>
<path fill="#546ED6" opacity="1.000000" stroke="none" 
	d="
M385.928009,63.487720 
	C386.881042,68.885788 387.884857,74.749100 388.888702,80.612411 
	C389.125153,80.625328 389.361633,80.638237 389.598114,80.651154 
	C389.888702,76.005959 390.179291,71.360771 390.640930,66.338371 
	C390.811981,71.399757 390.811981,76.838348 390.811981,82.680145 
	C389.338165,82.799644 387.972961,82.910339 385.978790,83.072029 
	C385.978790,76.438034 385.978790,70.195496 385.928009,63.487720 
z"/>
<path fill="#025555" opacity="1.000000" stroke="none" 
	d="
M85.431198,74.032860 
	C82.699181,70.182465 80.188507,66.330116 77.478004,61.953148 
	C77.602348,60.938416 77.926521,60.448315 78.250702,59.958214 
	C80.839729,64.349045 83.428749,68.739876 86.042122,73.502319 
	C86.066475,73.873932 85.652542,74.030914 85.431198,74.032860 
z"/>
<path fill="#526EDB" opacity="1.000000" stroke="none" 
	d="
M356.960480,77.884125 
	C357.766907,78.886711 358.573334,79.889305 359.731659,80.950180 
	C356.194427,81.568405 352.305298,82.128342 348.178741,82.337082 
	C348.609253,81.195450 349.277222,80.405022 350.392822,79.296951 
	C352.880493,78.614243 354.920471,78.249176 356.960480,77.884125 
z"/>
<path fill="#526EDB" opacity="1.000000" stroke="none" 
	d="
M362.301941,78.888817 
	C362.493042,77.797012 362.990204,76.559708 363.803772,75.183914 
	C363.616058,76.278061 363.112030,77.510689 362.301941,78.888817 
z"/>
<path fill="#546ED6" opacity="1.000000" stroke="none" 
	d="
M391.260010,64.994781 
	C391.075562,64.778099 391.220184,64.491150 391.615448,64.072090 
	C391.698975,64.230484 391.606628,64.558662 391.260010,64.994781 
z"/>
<path fill="#526EDB" opacity="1.000000" stroke="none" 
	d="
M344.064972,79.240402 
	C344.265503,79.150253 344.517059,79.348557 344.869751,79.792557 
	C344.724152,79.819931 344.439209,79.650139 344.064972,79.240402 
z"/>
<path fill="#526EDB" opacity="1.000000" stroke="none" 
	d="
M345.067749,80.246208 
	C345.283630,80.161270 345.523224,80.371574 345.864227,80.819008 
	C345.708740,80.845253 345.417358,80.673691 345.067749,80.246208 
z"/>
<path fill="#526EDB" opacity="1.000000" stroke="none" 
	d="
M346.066528,81.237946 
	C346.260956,81.088974 346.509247,81.227814 346.877899,81.573868 
	C346.734802,81.643745 346.442230,81.558640 346.066528,81.237946 
z"/>
<path fill="#000000" opacity="1.000000" stroke="none" 
	d="
M97.012611,56.102348 
	C101.260567,49.305130 105.508522,42.507912 109.902061,35.396603 
	C111.852135,36.159420 113.656624,37.236324 115.842308,38.540726 
	C110.450310,47.522377 105.046341,56.523956 99.329590,66.046562 
	C98.173073,64.109055 97.148689,62.392921 96.093735,60.025169 
	C96.379639,58.283154 96.696129,57.192749 97.012611,56.102348 
z"/>
<path fill="#000000" opacity="1.000000" stroke="none" 
	d="
M78.186310,59.593353 
	C77.926521,60.448315 77.602348,60.938416 77.251015,61.718334 
	C76.340263,62.953934 75.456665,63.899715 74.105141,65.346344 
	C68.637672,56.263905 63.414196,47.586792 58.044449,38.666695 
	C59.756927,37.543190 61.226616,36.578972 62.853714,35.321602 
	C68.048050,43.095127 73.084984,51.161808 78.186310,59.593353 
z"/>
<path fill="#036262" opacity="1.000000" stroke="none" 
	d="
M96.731133,55.906975 
	C96.696129,57.192749 96.379639,58.283154 95.962311,59.703712 
	C93.073250,55.450485 90.285034,50.867096 87.298096,45.855698 
	C87.280594,45.162640 87.531502,45.020863 87.852097,45.002361 
	C90.717949,48.572109 93.583801,52.141853 96.731133,55.906975 
z"/>
<path fill="#000000" opacity="1.000000" stroke="none" 
	d="
M87.954491,44.661385 
	C87.531502,45.020863 87.280594,45.162640 87.015518,45.633198 
	C85.596184,43.590294 84.260696,41.341881 82.754807,38.806576 
	C84.364655,37.787605 85.817245,36.868172 87.635239,35.950279 
	C92.193687,38.713291 88.928253,41.524895 87.954491,44.661385 
z"/>
<path fill="#000000" opacity="1.000000" stroke="none" 
	d="
M218.996460,68.294220 
	C218.998810,68.889229 218.993378,69.054901 219.001541,69.219902 
	C219.169418,72.615135 219.120636,76.233688 214.872253,76.765411 
	C213.368301,76.953644 210.993591,75.271172 210.045288,73.785858 
	C207.865005,70.370979 208.536072,66.807129 211.519653,64.037262 
	C214.446060,61.320480 217.240692,62.818623 218.996460,68.294220 
z"/>
<path fill="#000000" opacity="1.000000" stroke="none" 
	d="
M182.401382,64.151169 
	C185.799942,62.692455 188.918564,61.516769 190.350449,66.718460 
	C187.117462,66.718460 184.355667,66.718460 181.488510,66.718460 
	C181.690033,65.990540 181.904510,65.215828 182.401382,64.151169 
z"/>
<path fill="#000000" opacity="1.000000" stroke="none" 
	d="
M287.129700,72.028809 
	C288.832275,71.871300 290.118835,71.751205 291.429626,71.628853 
	C292.345764,76.745087 291.683655,77.335228 284.417175,76.520561 
	C285.287659,74.832108 286.000671,73.449165 287.129700,72.028809 
z"/>
<path fill="#000000" opacity="1.000000" stroke="none" 
	d="
M237.954788,69.120682 
	C237.750641,65.770149 238.387451,63.476631 241.831070,62.992554 
	C245.556458,62.468876 247.071198,64.783119 247.845078,67.763016 
	C248.203735,69.144104 248.507095,71.170464 247.789597,72.070023 
	C246.250443,73.999733 244.096313,76.643936 242.078796,76.747292 
	C237.215530,76.996422 238.040268,72.757088 237.954788,69.120682 
z"/>
<path fill="#000000" opacity="1.000000" stroke="none" 
	d="
M357.110931,77.565292 
	C354.920471,78.249176 352.880493,78.614243 350.438721,78.966408 
	C350.036987,78.953506 350.008759,78.997459 349.881958,78.708954 
	C349.165344,78.326515 348.575500,78.232590 347.985657,78.138664 
	C344.732697,74.431969 343.558350,66.689056 346.436432,63.386917 
	C349.638519,59.713062 353.998016,60.524189 358.554657,62.038391 
	C359.315765,65.508942 360.014465,68.933586 359.872253,72.322952 
	C359.801971,73.997688 358.180786,75.607353 357.110931,77.565292 
z"/>
<path fill="#526EDB" opacity="1.000000" stroke="none" 
	d="
M348.218018,78.299744 
	C348.575500,78.232590 349.165344,78.326515 349.902771,78.693512 
	C349.517059,78.797989 348.983704,78.629402 348.218018,78.299744 
z"/>
</svg>