<?xml version="1.0" encoding="UTF-8"?>
<svg version="1.1" xmlns="http://www.w3.org/2000/svg" width="500" height="107">
<path d="M0 0 C165 0 330 0 500 0 C500 35.31 500 70.62 500 107 C335 107 170 107 0 107 C0 71.69 0 36.38 0 0 Z " fill="#FDFEFE" transform="translate(0,0)"/>
<path d="M0 0 C10 3.33333333 20 6.66666667 30 10 C29.6390625 9.44570313 29.278125 8.89140625 28.90625 8.3203125 C28.4421875 7.59585937 27.978125 6.87140625 27.5 6.125 C27.0359375 5.40570312 26.571875 4.68640625 26.09375 3.9453125 C25 2 25 2 25 0 C29.53687239 1.49817608 34.06492616 3.01481544 38.5703125 4.60546875 C39.32183594 4.86650391 40.07335937 5.12753906 40.84765625 5.39648438 C42.37651016 5.92751854 43.90255422 6.46670665 45.42578125 7.01367188 C46.54919922 7.39942383 46.54919922 7.39942383 47.6953125 7.79296875 C48.35547363 8.0252417 49.01563477 8.25751465 49.69580078 8.49682617 C55.30299001 9.72128231 59.97647437 8.96181142 65.30078125 7.03125 C66.44224609 6.62519531 67.58371094 6.21914063 68.75976562 5.80078125 C69.93216797 5.37152344 71.10457031 4.94226563 72.3125 4.5 C74.66186857 3.65376989 77.01208652 2.80989292 79.36328125 1.96875 C80.39751221 1.59169922 81.43174316 1.21464844 82.49731445 0.82617188 C85 0 85 0 87 0 C85.33333333 3.33333333 83.66666667 6.66666667 82 10 C83.10456543 9.5831897 83.10456543 9.5831897 84.23144531 9.15795898 C87.56685609 7.90652254 90.90823488 6.6718622 94.25 5.4375 C95.40886719 4.99986328 96.56773437 4.56222656 97.76171875 4.11132812 C98.87675781 3.70205078 99.99179688 3.29277344 101.140625 2.87109375 C102.68024902 2.29766235 102.68024902 2.29766235 104.25097656 1.71264648 C107.03791252 0.9901717 108.3467472 0.99809178 111 2 C105.23200659 11.93448978 99.33567521 21.77747519 93.26123047 31.52783203 C90.063905 36.66055288 86.89351611 41.80834317 83.75390625 46.9765625 C82.67021722 48.75551736 81.58606696 50.53419028 80.50177002 52.31277466 C79.45746614 54.02967443 78.41886104 55.75003634 77.38037109 57.47045898 C76.73793457 58.52305908 76.09549805 59.57565918 75.43359375 60.66015625 C74.86697021 61.59480713 74.30034668 62.52945801 73.71655273 63.49243164 C72.01726241 65.97478279 70.19469612 67.95175701 68 70 C64.03981643 64.47131676 60.24914497 58.97842675 57 53 C56.34 53 55.68 53 55 53 C53.82173502 54.51815676 53.82173502 54.51815676 52.72265625 56.5 C52.29146484 57.221875 51.86027344 57.94375 51.41601562 58.6875 C50.51466701 60.22746647 49.61621987 61.7691349 48.72070312 63.3125 C48.07198242 64.3953125 48.07198242 64.3953125 47.41015625 65.5 C47.01965088 66.1703125 46.62914551 66.840625 46.22680664 67.53125 C45.82196045 68.0159375 45.41711426 68.500625 45 69 C44.01 69 43.02 69 42 69 C40.7199707 67.48486328 40.7199707 67.48486328 39.42578125 65.3203125 C38.93142578 64.50691406 38.43707031 63.69351563 37.92773438 62.85546875 C37.39470703 61.95441406 36.86167969 61.05335937 36.3125 60.125 C35.14214273 58.18997372 33.97155957 56.25508405 32.80078125 54.3203125 C32.18283691 53.29067383 31.56489258 52.26103516 30.92822266 51.20019531 C27.65945553 45.77515106 24.32532761 40.39048467 21 35 C19.65611149 32.81388722 18.31236088 30.62768967 16.96875 28.44140625 C14.35443495 24.19250354 11.72945396 19.95051071 9.09375 15.71484375 C8.48660156 14.73837891 7.87945312 13.76191406 7.25390625 12.75585938 C6.10738954 10.91351682 4.95902849 9.0723204 3.80859375 7.23242188 C3.30457031 6.42224609 2.80054688 5.61207031 2.28125 4.77734375 C1.83845703 4.06827881 1.39566406 3.35921387 0.93945312 2.62866211 C0 1 0 1 0 0 Z " fill="#14AEAD" transform="translate(57,16)"/>
<path d="M0 0 C0.52352051 0.17595703 1.04704102 0.35191406 1.58642578 0.53320312 C5.8379512 1.95688333 10.09598056 3.3551722 14.3671875 4.71875 C16.20314781 5.31242947 18.03908512 5.90618007 19.875 6.5 C20.81085938 6.79519531 21.74671875 7.09039063 22.7109375 7.39453125 C24.05671875 7.83345703 24.05671875 7.83345703 25.4296875 8.28125 C26.23647949 8.53970703 27.04327148 8.79816406 27.87451172 9.06445312 C30.13497782 10.05941133 31.38845664 11.15194143 33 13 C31.02 14.32 29.04 15.64 27 17 C32.14363387 26.12447817 37.45088937 35.11551968 43 44 C44.70840281 42.36587557 45.93453047 41.13093906 47 39 C51.58239538 40.52746513 53.16595461 43.30891275 55.421875 47.46484375 C56.59480731 54.63716633 51.31670147 60.71559478 47.35375977 66.38696289 C46 68 46 68 43 70 C38.33753958 63.14248694 33.95164307 56.13558821 29.625 49.0625 C28.5752795 47.35056286 27.52555496 45.63862819 26.4756012 43.92683411 C25.75210184 42.74711015 25.02882675 41.56724863 24.30577087 40.38725281 C21.73787611 36.19771036 19.15866927 32.01528341 16.57421875 27.8359375 C15.85265071 26.66791895 15.13113315 25.4998692 14.40966797 24.33178711 C13.04681815 22.12600119 11.68263453 19.92103861 10.31689453 17.71704102 C6.72178774 11.89088873 3.2536682 6.02408075 0 0 Z " fill="#0F928F" transform="translate(57,16)"/>
<path d="M0 0 C1.98 0 3.96 0 6 0 C7.63377165 4.56035392 8.72296253 9.12549661 9.625 13.875 C9.7590625 14.56335937 9.893125 15.25171875 10.03125 15.9609375 C10.35772223 17.63993755 10.67936553 19.31987536 11 21 C12.89780729 16.66581848 14.01945889 12.26935373 15.125 7.6875 C15.30675781 6.94693359 15.48851562 6.20636719 15.67578125 5.44335938 C16.1204213 3.629696 16.56065745 1.81495392 17 0 C18.98 0 20.96 0 23 0 C23.62967954 1.97768283 24.25347489 3.95723935 24.875 5.9375 C25.22304687 7.03964844 25.57109375 8.14179687 25.9296875 9.27734375 C27.13516513 13.47011814 28.05361285 17.74125784 29 22 C30.65 14.74 32.3 7.48 34 0 C36.31 0 38.62 0 41 0 C38.68875501 11.00481116 36.36715935 22.00705546 34 33 C31.36 33 28.72 33 26 33 C24.65177579 29.16274648 23.48023776 25.28785596 22.375 21.375 C22.11460937 20.45460938 21.85421875 19.53421875 21.5859375 18.5859375 C21 16 21 16 21 12 C20.34 12 19.68 12 19 12 C18.896875 13.051875 18.79375 14.10375 18.6875 15.1875 C17.94805734 21.22265699 16.43040204 27.09846705 15 33 C12.36 33 9.72 33 7 33 C0 7.94923858 0 7.94923858 0 0 Z " fill="#0E0E0E" transform="translate(157,44)"/>
<path d="M0 0 C1.98 0 3.96 0 6 0 C6.33 3.96 6.66 7.92 7 12 C7.66 11.34 8.32 10.68 9 10 C15.93181818 9.31818182 15.93181818 9.31818182 19.9375 11.875 C23.9643921 16.02391914 23.39987369 20.20809653 23.33203125 25.77734375 C23.02469137 28.76034845 22.76018807 30.39139846 21.0625 32.8125 C17.41558077 35.41744231 15.35427738 35.58235741 10.98828125 35.40625 C9 35 9 35 7 33 C6.67 33.66 6.34 34.32 6 35 C4.02 35 2.04 35 0 35 C0 23.45 0 11.9 0 0 Z " fill="#090909" transform="translate(229,42)"/>
<path d="M0 0 C3.76877031 1.63859579 5.81954834 3.55170145 8 7 C8.75035325 11.52418874 8.54646353 15.71581071 6.75 19.9375 C4.23193945 22.90521422 2.29028342 24.76924887 -1.62109375 25.46875 C-9.25213281 25.55342172 -9.25213281 25.55342172 -13.125 22.6875 C-16.52891608 17.80855362 -16.82678391 12.78748738 -16 7 C-12.26771837 0.03678801 -7.27609805 -0.70617243 0 0 Z " fill="#080808" transform="translate(273,52)"/>
<path d="M0 0 C-1.65517027 3.58620225 -3.66455721 6.81530529 -6 10 C-6.99 10.33 -7.98 10.66 -9 11 C-8.93683594 11.71567139 -8.87367188 12.43134277 -8.80859375 13.16870117 C-9.04572696 16.67639741 -10.14356564 18.37097969 -12.0625 21.30078125 C-12.69414062 22.27724609 -13.32578125 23.25371094 -13.9765625 24.25976562 C-14.64429688 25.26716797 -15.31203125 26.27457031 -16 27.3125 C-16.66773437 28.33923828 -17.33546875 29.36597656 -18.0234375 30.42382812 C-19.67229521 32.95600246 -21.33134271 35.48084736 -23 38 C-29.99942056 29.41384638 -29.99942056 29.41384638 -31 25 C-30.1577742 21.98544791 -28.77333379 19.56451348 -27 17 C-27.99 16.34 -28.98 15.68 -30 15 C-29.75 12.62109375 -29.75 12.62109375 -29 10 C-27.3125 8.84765625 -27.3125 8.84765625 -25 8.0625 C-24.113125 7.74925781 -23.22625 7.43601562 -22.3125 7.11328125 C-21.219375 6.74589844 -20.12625 6.37851562 -19 6 C-17.54056047 5.47572546 -16.08230285 4.94815358 -14.625 4.41796875 C-2.39897937 0 -2.39897937 0 0 0 Z " fill="#129390" transform="translate(144,16)"/>
<path d="M0 0 C4.18531174 1.72871572 6.23950002 3.83039478 8 8 C8.53647806 13.63301965 8.16601282 17.13790888 5 22 C1.24012833 25.41732371 -1.65833952 25.56050869 -6.5859375 25.4296875 C-10.25566441 24.77649986 -11.84144922 22.92448816 -14 20 C-16.00567364 15.98865272 -15.60962158 11.35102463 -15 7 C-11.93924908 0.17756283 -7.07303142 -1.42506548 0 0 Z " fill="#F9FAFF" transform="translate(383,52)"/>
<path d="M0 0 C2.79296875 2.04296875 2.79296875 2.04296875 5 5 C5.36771245 7.8387401 5.48630804 10.01820151 5.3125 12.8125 C5.28994141 13.50537109 5.26738281 14.19824219 5.24414062 14.91210938 C5.18562661 16.60901573 5.0959548 18.30479861 5 20 C5.99 20 6.98 20 8 20 C8 21.65 8 23.3 8 25 C5.69 25 3.38 25 1 25 C0.67 24.01 0.34 23.02 0 22 C-0.66 22 -1.32 22 -2 22 C-2 22.66 -2 23.32 -2 24 C-5.18948483 25.59474241 -8.52957489 25.37691092 -12 25 C-13.9375 23.9375 -13.9375 23.9375 -15 22 C-16 18.5625 -16 18.5625 -16 15 C-12.42559506 10.71071407 -7.1997984 9.49536686 -2 8 C-2 7.34 -2 6.68 -2 6 C-7.7974423 5.75571657 -7.7974423 5.75571657 -13 8 C-13.66 6.35 -14.32 4.7 -15 3 C-10.59914964 -0.52068029 -5.42610146 -1.2886991 0 0 Z " fill="#0F0F0F" transform="translate(320,52)"/>
<path d="M0 0 C3.63467079 1.62400184 4.77408696 2.66113044 7 6 C7 8.64 7 11.28 7 14 C1.72 14 -3.56 14 -9 14 C-8.34 15.65 -7.68 17.3 -7 19 C-1.2025577 19.24428343 -1.2025577 19.24428343 4 17 C4.66 17.66 5.32 18.32 6 19 C5.8125 21 5.8125 21 5 23 C0.54422653 25.97051564 -3.77442606 25.62737491 -9 25 C-12.70734915 22.88151477 -14.36340454 20.86831655 -16 17 C-16.74148241 12.25796134 -16.43787689 8.83045617 -14.1875 4.5625 C-9.88431055 -0.47837908 -6.25443075 -0.72547 0 0 Z " fill="#0C0C0C" transform="translate(216,52)"/>
<path d="M0 0 C0.99 0 1.98 0 3 0 C3.33 0.99 3.66 1.98 4 3 C4.33 2.505 4.66 2.01 5 1.5 C7.61915783 -0.46436837 9.85090676 -0.41101967 13.05859375 -0.3046875 C15.66017056 0.10360826 17.15608554 1.15608554 19 3 C19.33 2.505 19.66 2.01 20 1.5 C22.57478144 -0.43108608 24.81096724 -0.40494125 27.96484375 -0.49609375 C31.18576447 0.28904432 32.14401407 1.21396348 34 4 C34.49177116 7.59524078 34.37532319 11.13008778 34.25 14.75 C34.23195313 15.73355469 34.21390625 16.71710938 34.1953125 17.73046875 C34.14824126 20.15463783 34.08250742 22.57682059 34 25 C32.68 25 31.36 25 30 25 C29.97494385 24.39937744 29.9498877 23.79875488 29.92407227 23.17993164 C29.8084472 20.47388563 29.68557064 17.76821717 29.5625 15.0625 C29.52318359 14.11697266 29.48386719 13.17144531 29.44335938 12.19726562 C29.40146484 11.29814453 29.35957031 10.39902344 29.31640625 9.47265625 C29.27974854 8.64000244 29.24309082 7.80734863 29.20532227 6.94946289 C29.20632897 4.99661142 29.20632897 4.99661142 28 4 C25.04195427 3.66659529 25.04195427 3.66659529 22 4 C19.9859044 7.0211434 19.73163404 7.80660017 19.5859375 11.23046875 C19.54726563 12.03291016 19.50859375 12.83535156 19.46875 13.66210938 C19.42234375 14.91217773 19.42234375 14.91217773 19.375 16.1875 C19.33632813 17.03248047 19.29765625 17.87746094 19.2578125 18.74804688 C19.16363721 20.83167524 19.08073325 22.91580753 19 25 C17.68 25 16.36 25 15 25 C14.97494385 24.39937744 14.9498877 23.79875488 14.92407227 23.17993164 C14.8084472 20.47388563 14.68557064 17.76821717 14.5625 15.0625 C14.52318359 14.11697266 14.48386719 13.17144531 14.44335938 12.19726562 C14.40146484 11.29814453 14.35957031 10.39902344 14.31640625 9.47265625 C14.27974854 8.64000244 14.24309082 7.80734863 14.20532227 6.94946289 C14.20632897 4.99661142 14.20632897 4.99661142 13 4 C10.04182893 3.74994614 10.04182893 3.74994614 7 4 C4.6031335 6.3968665 4.71718867 7.07028314 4.5859375 10.3515625 C4.52792969 11.62773438 4.52792969 11.62773438 4.46875 12.9296875 C4.4378125 13.81914063 4.406875 14.70859375 4.375 15.625 C4.31699219 16.97078125 4.31699219 16.97078125 4.2578125 18.34375 C4.16340643 20.5622927 4.07783252 22.78082403 4 25 C2.68 25 1.36 25 0 25 C0 16.75 0 8.5 0 0 Z " fill="#5D79FF" transform="translate(398,52)"/>
<path d="M0 0 C4.75 0.875 4.75 0.875 7 2 C6.07602505 8.44228029 2.46846592 13.35017094 -0.875 18.8125 C-1.51308594 19.88693359 -2.15117187 20.96136719 -2.80859375 22.06835938 C-3.73478516 23.59106445 -3.73478516 23.59106445 -4.6796875 25.14453125 C-5.24413574 26.07628174 -5.80858398 27.00803223 -6.39013672 27.96801758 C-7.18701904 28.97384888 -7.18701904 28.97384888 -8 30 C-8.99 30 -9.98 30 -11 30 C-12.8125 27.8125 -12.8125 27.8125 -14 25 C-12.8689493 21.4207956 -11.11965445 18.33560042 -9.1796875 15.13671875 C-8.37724609 13.80737305 -8.37724609 13.80737305 -7.55859375 12.45117188 C-6.72521484 11.0831543 -6.72521484 11.0831543 -5.875 9.6875 C-5.31167969 8.75615234 -4.74835938 7.82480469 -4.16796875 6.86523438 C-2.7819554 4.57478858 -1.39254372 2.28647924 0 0 Z " fill="#F4FAFA" transform="translate(135,30)"/>
<path d="M0 0 C2.82352486 3.43447758 5.00245923 7.33205473 7.3125 11.125 C8.31893555 12.69507813 8.31893555 12.69507813 9.34570312 14.296875 C9.97025391 15.31523438 10.59480469 16.33359375 11.23828125 17.3828125 C11.81618408 18.31496582 12.39408691 19.24711914 12.98950195 20.20751953 C14 23 14 23 13.36010742 26.22607422 C12 29 12 29 9 31 C3.16970999 21.75599894 -2.57295919 12.48833625 -8 3 C-3.375 0 -3.375 0 0 0 Z " fill="#F4FAFA" transform="translate(91,30)"/>
<path d="M0 0 C4.18531174 1.72871572 6.23950002 3.83039478 8 8 C8.53647806 13.63301965 8.16601282 17.13790888 5 22 C1.24012833 25.41732371 -1.65833952 25.56050869 -6.5859375 25.4296875 C-10.25566441 24.77649986 -11.84144922 22.92448816 -14 20 C-16.00567364 15.98865272 -15.60962158 11.35102463 -15 7 C-11.93924908 0.17756283 -7.07303142 -1.42506548 0 0 Z M-9.375 4.3125 C-12.0009467 8.65541186 -11.72617223 13.06652061 -11 18 C-9.66177841 20.84074462 -9.66177841 20.84074462 -7 22 C-2.28765524 22.60902229 -2.28765524 22.60902229 1.875 20.6875 C4.43181756 16.85227366 4.76316822 12.45759621 4 8 C1.53448014 4.51926607 0.15106301 3.21141974 -4.0625 2.4375 C-7.00789652 2.84394966 -7.00789652 2.84394966 -9.375 4.3125 Z " fill="#5B78FF" transform="translate(383,52)"/>
<path d="M0 0 C1.98 0 3.96 0 6 0 C6.33 0.66 6.66 1.32 7 2 C7.66 1.34 8.32 0.68 9 0 C12.125 -0.125 12.125 -0.125 15 0 C15 1.98 15 3.96 15 6 C13.865625 6.309375 12.73125 6.61875 11.5625 6.9375 C8.21224901 7.62924531 8.21224901 7.62924531 7 9 C6.76321284 11.69235776 6.57801975 14.36498156 6.4375 17.0625 C6.39431641 17.82111328 6.35113281 18.57972656 6.30664062 19.36132812 C6.20026367 21.24065438 6.09960066 23.12030244 6 25 C4.02 25 2.04 25 0 25 C0 16.75 0 8.5 0 0 Z " fill="#0B0B0B" transform="translate(287,52)"/>
<path d="M0 0 C0.76183594 -0.00515625 1.52367187 -0.0103125 2.30859375 -0.015625 C4.81829622 0.28014583 6.43340163 0.89984006 8.5625 2.25 C9.3125 4.375 9.3125 4.375 9.5625 6.25 C8.5725 6.58 7.5825 6.91 6.5625 7.25 C6.19125 6.755 5.82 6.26 5.4375 5.75 C3.57181202 3.99973954 3.57181202 3.99973954 0.625 3.8125 C-2.46503261 4.04088328 -2.46503261 4.04088328 -4.8125 5.75 C-7.06624482 9.21729973 -7.06513505 12.28805375 -6.4375 16.25 C-5.58913476 19.30649286 -5.58913476 19.30649286 -3.4375 21.25 C0.0625 21.91666667 0.0625 21.91666667 3.5625 21.25 C5.3136573 19.8333253 5.3136573 19.8333253 6.5625 18.25 C7.5525 18.25 8.5425 18.25 9.5625 18.25 C8.9961353 21.53491525 8.19038691 23.17565911 5.5625 25.25 C0.84344694 26.13782185 -3.24631046 25.92004412 -7.4375 23.5625 C-11.02948007 19.40927304 -11.89755971 15.77377586 -11.76171875 10.24609375 C-11.22130244 6.91895238 -9.55633057 4.79259669 -7.4375 2.25 C-4.32763793 0.17675862 -3.54641613 -0.02392186 0 0 Z " fill="#5573FF" transform="translate(353.4375,51.75)"/>
<path d="M0 0 C3 0.5 3 0.5 4.875 2.0625 C6.42190908 5.41413635 6.39126176 7.84822358 6 11.5 C4.875 13.9375 4.875 13.9375 3 15.5 C0 16 0 16 -3 15.5 C-5.80872754 13.15939372 -5.98435997 11.64597363 -6.375 8 C-5.84542402 3.05729088 -5.10329799 0.85054966 0 0 Z " fill="#EEEEEE" transform="translate(269,56.5)"/>
<path d="M0 0 C2.98636722 0.44795508 3.67276949 1.02570363 5.5 3.375 C5.8984375 5.53125 5.8984375 5.53125 5.875 7.875 C5.88273438 8.6484375 5.89046875 9.421875 5.8984375 10.21875 C5.40417274 12.89359457 4.70777953 13.81031221 2.5 15.375 C-1.125 15.1875 -1.125 15.1875 -4.5 14.375 C-5.66343227 12.04813547 -5.69895988 10.52778587 -5.75 7.9375 C-5.78867188 6.76380859 -5.78867188 6.76380859 -5.828125 5.56640625 C-5.27954524 1.90267715 -3.58489235 0.53773385 0 0 Z " fill="#F4F4F4" transform="translate(240.5,56.625)"/>
<path d="M0 0 C5.28 0 10.56 0 16 0 C14.68 0.99 13.36 1.98 12 3 C11.3503125 3.8353125 11.3503125 3.8353125 10.6875 4.6875 C7.92978246 6.83239142 5.3542804 6.30493458 2 6 C1.34 5.34 0.68 4.68 0 4 C0 2.68 0 1.36 0 0 Z " fill="#F1F1F1" transform="translate(207,66)"/>
<path d="M0 0 C0.22732116 2.80362763 0.34081872 4.46186517 -1.1875 6.875 C-3 8 -3 8 -5.6875 7.6875 C-6.450625 7.460625 -7.21375 7.23375 -8 7 C-8.625 5.125 -8.625 5.125 -9 3 C-6.15236477 0.15236477 -3.96383452 0 0 0 Z " fill="#DEDEDE" transform="translate(319,65)"/>
<path d="M0 0 C0.928125 0.20625 1.85625 0.4125 2.8125 0.625 C2.8125 4.20075896 1.72409393 5.67795935 -0.1875 8.625 C-3.1875 7.625 -3.1875 7.625 -4.875 4.5625 C-5.308125 3.593125 -5.74125 2.62375 -6.1875 1.625 C-3.1875 -0.375 -3.1875 -0.375 0 0 Z " fill="#EDF7F7" transform="translate(114.1875,31.375)"/>
<path d="M0 0 C3.0625 0.1875 3.0625 0.1875 5.0625 2.1875 C5.0625 3.1775 5.0625 4.1675 5.0625 5.1875 C1.7625 5.1875 -1.5375 5.1875 -4.9375 5.1875 C-3.69966216 0.23614865 -3.69966216 0.23614865 0 0 Z " fill="#F2F2F2" transform="translate(211.9375,56.8125)"/>
<path d="M0 0 C2.26510339 2.13852409 4.04779168 4.32911607 5.75 6.9375 C6.19859375 7.60652344 6.6471875 8.27554688 7.109375 8.96484375 C8.18726604 11.42791933 7.90922753 12.52180058 7 15 C3.59541738 11.10904843 0.75822032 6.88634235 -1 2 C-0.67 1.34 -0.34 0.68 0 0 Z " fill="#085D5B" transform="translate(114,39)"/>
<path d="M0 0 C3.96873434 1.32291145 4.29905037 2.91149738 6.1875 6.5625 C6.71730469 7.57441406 7.24710937 8.58632813 7.79296875 9.62890625 C8.19128906 10.41136719 8.58960937 11.19382812 9 12 C8.34 12.66 7.68 13.32 7 14 C5.82508418 12.23462904 4.66031316 10.46250287 3.5 8.6875 C2.8503125 7.70136719 2.200625 6.71523438 1.53125 5.69921875 C0 3 0 3 0 0 Z " fill="#085D5B" transform="translate(104,55)"/>
<path d="M0 0 C0.99 0.33 1.98 0.66 3 1 C1.25 4.875 1.25 4.875 -1 6 C-3.3329866 6.04022391 -5.66706666 6.04320247 -8 6 C-6.49650603 2.99301207 -3.9581052 2.41742541 -1 1 C-0.67 0.67 -0.34 0.34 0 0 Z " fill="#5372FF" transform="translate(385,71)"/>
<path d="M0 0 C1.98 0.495 1.98 0.495 4 1 C4 2.32 4 3.64 4 5 C2.35 4.67 0.7 4.34 -1 4 C-0.67 2.68 -0.34 1.36 0 0 Z " fill="#0D0D0D" transform="translate(333,72)"/>
<path d="M0 0 C0.625 1.875 0.625 1.875 1 4 C0.34 4.66 -0.32 5.32 -1 6 C-1.40047444 8.32275177 -1.7397104 10.65739357 -2 13 C-2.33 13 -2.66 13 -3 13 C-3.27429625 7.60550707 -3.36055646 4.48074195 0 0 Z " fill="#7D94FF" transform="translate(345,55)"/>
</svg>
